# xmcd
#
# Track frame offsets: 
#        150
#        15616
#        30223
#        46757
#        61453
#        72372
#        92660
#        102213
#        114682
#        127573
#        144542
#        166001
#        182567
#        210185
#        224820
#
# Disc length: 3086 seconds
#
# Revision: 0
# Processed by: cddbd v1.5.1PL0 Copyright (c) Steve Scherf et al.
# Submitted via: ExactAudioCopy v0.95a5
#
DISCID=c10c0c0f
DTITLE=The Beatlesøns - entertainment
DYEAR=2003
DGENRE=Folk/Rock
TTITLE0=Pet Sementary
TTITLE1=Alien in N.Y.
TTITLE2=The other side
TTITLE3=Anybody seen my baby
TTITLE4=Love Song
TTITLE5=Girls just wanna have fun
TTITLE6=The vicar
TTITLE7=Dear Doctor
TTITLE8=Mercedes Benz
TTITLE9=Sweet child o' mine
TTITLE10=White wedding
TTITLE11=Stand by your man
TTITLE12=Sympathy for the devil
TTITLE13=Breakaway
TTITLE14=Dig me a grave in Missouri
EXTD=
EXTT0=
EXTT1=
EXTT2=
EXTT3=
EXTT4=
EXTT5=
EXTT6=
EXTT7=
EXTT8=
EXTT9=
EXTT10=
EXTT11=
EXTT12=
EXTT13=
EXTT14=
PLAYORDER=
